<?xml version="1.0" encoding="utf-8"?>
<!-- Generator: Adobe Illustrator 27.7.0, SVG Export Plug-In . SVG Version: 6.00 Build 0)  -->
<svg version="1.1" id="레이어_1" xmlns="http://www.w3.org/2000/svg" xmlns:xlink="http://www.w3.org/1999/xlink" x="0px"
	 y="0px" viewBox="0 0 47 40" style="enable-background:new 0 0 47 40;" xml:space="preserve">
<style type="text/css">
	.st0{fill-rule:evenodd;clip-rule:evenodd;fill:#FFB71B;}
	.st1{fill:#0047BA;}
</style>
<g>
	<path class="st0" d="M27.9,2.8h8.3L39.3,14L27.9,3.9V2.8z M36.7,2.8h2.8v5L36.7,2.8z M39.5,26.3L39.5,26.3l-3.9,10.8h-7.7v-1.6
		L39.5,26.3z M39.5,32v5.1h-3.4L39.5,32z M27.9,35.4V27L38,24.3L27.9,35.4z M27.9,26.1V21l8.8,0.7L27.9,26.1z M27.9,19.4v-5.7
		l8.6,5.1L27.9,19.4z M27.9,12.7V4.6l9.6,11.5L27.9,12.7z"/>
	<path class="st1" d="M24.6,37.2c-9.4,0-17.1-7.7-17.1-17.1c0-9.4,7.7-17.1,17.1-17.1v9.6c-4.1,0-7.5,3.4-7.5,7.5
		c0,4.1,3.4,7.5,7.5,7.5V37.2z"/>
</g>
</svg>
